<?xml version="1.0" encoding="UTF-8"?>
<svg id="Layer_1" xmlns="http://www.w3.org/2000/svg" version="1.1" viewBox="0 0 193 60">
  <!-- Generator: Adobe Illustrator 29.6.0, SVG Export Plug-In . SVG Version: 2.1.1 Build 207)  -->
  <defs>
    <style>
      .st0 {
        fill: #f7921e;
      }

      .st1 {
        fill: #223740;
      }
    </style>
  </defs>
  <path class="st0" d="M38.8,43.9v-9.9h-12.3c-.5,1.1-1.6,2.4-3.1,4.1l-5.7,6.1c-1.6,1.8-3.2,1.6-3.2,0s.2-1.3.7-2.1v-.2c.1,0,.2,0,.2,0l3.8-5.8c0,0,0-.1,0-.2.5-1.1-.5-1.8-1.5-1.8h-9.1c-4.9.5-8.8,4.8-8.8,9.9s4.4,9.9,9.7,9.9h29.1v-9.9ZM23.4,25.8c1.6,1.7,2.6,3,3.1,4.1h2.7c5.3,0,9.7-4.5,9.7-9.9s-4.4-9.9-9.7-9.9H0v19.9h17.8c1.1,0,2.1-.8,1.4-2l-3.3-5c-.5-.8-1.2-1.6-1.4-2.6-.5-2,1.4-2.6,3.1-.5l5.7,6.1Z"/>
  <path class="st1" d="M74.4,17.8v5.9h-8v24.3h-7.4v-24.3h-8v-5.9h23.3ZM85.4,28c.9-1.3,1.9-2.4,3.2-3.1,1.3-.8,2.7-1.2,4.3-1.2v7.8h-2c-1.8,0-3.2.4-4.1,1.2-.9.8-1.4,2.1-1.4,4.1v11.1h-7.4v-24h7.4v4ZM100.2,21.5c-1.3,0-2.4-.4-3.2-1.1-.8-.8-1.2-1.7-1.2-2.8s.4-2.1,1.2-2.8c.8-.8,1.9-1.2,3.2-1.2s2.3.4,3.1,1.2c.8.7,1.2,1.7,1.2,2.8s-.4,2.1-1.2,2.8c-.8.7-1.8,1.1-3.1,1.1ZM103.8,24v24h-7.4v-24h7.4ZM116.5,27.4c.7-1.1,1.7-2,3-2.7,1.3-.7,2.7-1,4.4-1s3.8.5,5.4,1.5c1.6,1,2.9,2.4,3.8,4.3.9,1.9,1.4,4,1.4,6.5s-.5,4.6-1.4,6.5c-.9,1.9-2.2,3.3-3.8,4.3-1.6,1-3.4,1.5-5.4,1.5s-3.1-.3-4.4-1c-1.3-.7-2.2-1.6-3-2.7v14.8h-7.4V24h7.4v3.4ZM127,36c0-1.8-.5-3.3-1.5-4.3-1-1.1-2.2-1.6-3.7-1.6s-2.7.5-3.7,1.6c-1,1.1-1.5,2.5-1.5,4.3s.5,3.3,1.5,4.3c1,1.1,2.3,1.6,3.7,1.6s2.7-.5,3.7-1.6c1-1.1,1.5-2.6,1.5-4.4Z"/>
  <path class="st0" d="M142,21.5c-1.3,0-2.4-.4-3.2-1.1-.8-.8-1.2-1.7-1.2-2.8s.4-2.1,1.2-2.8c.8-.8,1.9-1.2,3.2-1.2s2.3.4,3.1,1.2c.8.7,1.2,1.7,1.2,2.8s-.4,2.1-1.2,2.8c-.8.7-1.8,1.1-3.1,1.1ZM145.7,24v24h-7.4v-24h7.4ZM165.2,48l-4.6-6.7-3.9,6.7h-8l7.9-12.3-8.1-11.7h8.3l4.6,6.6,3.9-6.6h8l-8,12.1,8.3,11.9h-8.3Z"/>
</svg>