<?xml version="1.0" encoding="UTF-8"?>
<svg id="Layer_1" xmlns="http://www.w3.org/2000/svg" version="1.1" viewBox="0 0 192 66">
  <!-- Generator: Adobe Illustrator 29.6.0, SVG Export Plug-In . SVG Version: 2.1.1 Build 207)  -->
  <defs>
    <style>
      .st0 {
        fill: #f7921e;
      }

      .st1 {
        fill: #fff;
      }
    </style>
  </defs>
  <circle class="st0" cx="148.8" cy="33" r="28.3"/>
  <path class="st0" d="M119.3,23.7c-.1,0-.2,0-.3,0-.5-.2-.8-.8-.6-1.3.5-1.3,1-2.6,1.6-3.9.2-.5.9-.7,1.4-.4.5.2.7.9.4,1.4-.6,1.2-1.1,2.4-1.5,3.6-.1.4-.5.7-1,.7ZM122.9,16.5c-.2,0-.4,0-.6-.2-.5-.3-.6-1-.3-1.4.8-1.2,1.6-2.3,2.6-3.3.4-.4,1-.4,1.4,0s.5,1,0,1.4c-.9,1-1.7,2-2.4,3.1-.2.3-.5.4-.8.4h0ZM128.3,10.4c-.3,0-.6-.1-.8-.3-.4-.4-.3-1.1.1-1.4,1.1-.9,2.2-1.8,3.3-2.5.5-.3,1.1-.2,1.4.3.3.5.2,1.1-.3,1.4-1.1.7-2.1,1.5-3.1,2.4-.2.2-.4.2-.7.2h0ZM135,5.9c-.4,0-.7-.2-.9-.6-.2-.5,0-1.1.5-1.4,1.2-.6,2.6-1.2,3.9-1.6.5-.2,1.1.1,1.3.6.2.5-.1,1.1-.6,1.3-1.2.4-2.5.9-3.6,1.5-.1,0-.3.1-.4.1h0ZM142.7,3.3c-.5,0-.9-.3-1-.8-.1-.5.2-1.1.8-1.2,1.4-.3,2.8-.4,4.2-.5.5,0,1,.4,1.1,1,0,.6-.4,1-1,1.1-1.3,0-2.6.3-3.9.5h-.2,0Z"/>
  <g>
    <path class="st1" d="M21.2,43.1s-.2-.3-.2-.5v-15.5h-5.3c-.2,0-.4,0-.5-.2-.2-.2-.2-.3-.2-.5v-3.2c0-.2,0-.4.2-.5.2-.1.3-.2.5-.2h16.1c.2,0,.4,0,.5.2s.2.3.2.5v3.2c0,.2,0,.4-.2.5s-.3.2-.5.2h-5.3v15.5c0,.2,0,.4-.2.5s-.3.2-.5.2h-3.9c-.2,0-.4,0-.5-.2h0Z"/>
    <path class="st1" d="M36.8,41.6c-1.6-1.4-2.5-3.4-2.6-6.1v-5.2c0-2.6,1-4.7,2.6-6.1s3.8-2.1,6.6-2.1,5,.7,6.6,2.1c1.6,1.4,2.5,3.4,2.6,6.1,0,1.1,0,2,0,2.6s0,1.4,0,2.6c0,2.7-1,4.7-2.6,6.1s-3.8,2.1-6.6,2.1-5-.7-6.6-2.1h0ZM46.1,38.4c.7-.7,1-1.7,1-3,0-1.1,0-2,0-2.5s0-1.3,0-2.5c0-1.3-.4-2.4-1.1-3s-1.5-1-2.6-1-1.9.3-2.6,1-1,1.7-1.1,3v4.9c0,1.3.4,2.4,1.1,3,.6.7,1.5,1,2.6,1s2-.3,2.6-1Z"/>
    <path class="st1" d="M58.3,41.6c-1.6-1.4-2.4-3.4-2.4-6.2v-12.2c0-.2,0-.4.2-.5s.3-.2.5-.2h3.8c.2,0,.4,0,.6.2s.2.3.2.5v12.1c0,1.3.3,2.3.9,2.9.6.7,1.5,1,2.6,1s2-.3,2.6-1c.6-.7.9-1.6.9-2.9v-12.1c0-.2,0-.4.2-.5s.3-.2.5-.2h3.9c.2,0,.4,0,.5.2.1.1.2.3.2.5v12.2c0,2.8-.8,4.8-2.4,6.2s-3.7,2.1-6.5,2.1-5-.7-6.6-2.1h0Z"/>
    <path class="st1" d="M78,43.1s-.2-.3-.2-.5v-19.4c0-.2,0-.4.2-.5s.3-.2.5-.2h8.1c2.6,0,4.6.6,6.1,1.8s2.2,2.9,2.2,5-.3,2.6-1,3.5c-.7,1-1.6,1.7-2.7,2.2l4.1,7.4s0,.2,0,.3c0,.2,0,.3-.2.4s-.3.2-.4.2h-4c-.6,0-1-.3-1.2-.8l-3.4-6.6h-3.1v6.6c0,.2,0,.4-.2.5s-.3.2-.6.2h-3.8c-.2,0-.4,0-.5-.2h0ZM86.6,31.7c.9,0,1.6-.2,2.1-.7.5-.5.7-1.1.7-1.9s-.2-1.4-.7-1.9-1.2-.7-2.1-.7h-3.4v5.1h3.4,0Z"/>
    <path class="st1" d="M101.3,42.8c-1.3-.6-2.4-1.3-3.1-2.2s-1.1-1.9-1.1-3c0-.2,0-.3.2-.4s.3-.2.5-.2h3.8c.2,0,.4,0,.6.1.2,0,.3.2.5.4.3.5.7,1,1.2,1.3s1.3.5,2.3.5,2-.2,2.6-.5.9-.9.9-1.5-.2-.8-.5-1.1c-.3-.3-.8-.5-1.4-.8s-1.6-.5-2.9-.8c-2.4-.5-4.2-1.2-5.4-2.2-1.2-1-1.8-2.3-1.8-4.1s.3-2.3,1-3.3,1.6-1.7,2.9-2.2,2.7-.8,4.4-.8,3.2.3,4.5.9c1.3.6,2.2,1.3,2.9,2.3.7.9,1,1.8,1.1,2.7,0,.2,0,.3-.2.5-.1.1-.3.2-.5.2h-3.9c-.2,0-.4,0-.6-.1s-.3-.2-.4-.4c-.1-.5-.4-.9-1-1.1-.5-.3-1.2-.5-2-.5s-1.6.2-2.1.5c-.5.3-.7.8-.7,1.4s.1.8.4,1.1c.3.3.7.5,1.3.8.6.2,1.5.5,2.6.7,1.8.3,3.3.8,4.4,1.3,1.1.5,1.9,1.1,2.4,2s.8,1.8.8,3-.4,2.5-1.1,3.5-1.8,1.7-3.2,2.3c-1.4.5-2.9.8-4.7.8s-3.5-.3-4.9-.8h0Z"/>
    <path class="st1" d="M125.5,39.2s-.1-.2-.1-.3v-12.1c0-.1,0-.2.1-.3,0,0,.2-.1.3-.1h4.5c1.3,0,2.4.3,3.1,1s1.1,1.6,1.1,2.8-.4,2.2-1.1,2.8c-.8.6-1.8,1-3.1,1h-3.7v4.9c0,.1,0,.2-.1.3,0,0-.2.1-.3.1h-.3c-.1,0-.2,0-.3-.1h0ZM130.2,33c1.1,0,1.8-.2,2.4-.7.5-.5.8-1.1.8-2s-.3-1.6-.8-2-1.3-.7-2.4-.7h-3.6v5.4h3.6Z"/>
    <path class="st1" d="M136.5,34.4v-3.1c0-1.7.5-2.9,1.4-3.8s2-1.3,3.5-1.3,2.6.4,3.5,1.3c.9.9,1.3,2.1,1.4,3.8,0,.7,0,1.3,0,1.5s0,.8,0,1.5c0,3.4-1.7,5.1-4.9,5.1s-4.8-1.7-4.9-5.1ZM144,37.4c.6-.7,1-1.7,1.1-3.1,0-.7,0-1.2,0-1.5s0-.7,0-1.5c0-1.4-.4-2.4-1.1-3.1-.7-.7-1.5-1-2.6-1s-2,.3-2.6,1c-.7.7-1,1.7-1.1,3.1v2.9c0,1.4.4,2.4,1.1,3.1s1.5,1,2.6,1,2-.3,2.6-1h0Z"/>
    <path class="st1" d="M149.3,39.2s-.1-.2-.1-.3v-12.1c0-.1,0-.2.1-.3,0,0,.2-.1.3-.1h.3c.1,0,.2,0,.3.1,0,0,.1.2.1.3v12.1c0,.1,0,.2-.1.3s-.2.1-.3.1h-.3c-.1,0-.2,0-.3-.1Z"/>
    <path class="st1" d="M153.9,39.2s-.1-.2-.1-.3v-12.1c0-.1,0-.2.1-.3,0,0,.2-.1.3-.1h.4c.2,0,.3,0,.4.2l6.8,10.4v-10.2c0-.1,0-.2.1-.3,0,0,.2-.1.3-.1h.3c.1,0,.2,0,.3.1,0,0,.1.2.1.3v12.1c0,.1,0,.2-.1.3,0,0-.2.1-.3.1h-.4c-.2,0-.3,0-.4-.2l-6.8-10.4v10.2c0,.1,0,.2-.1.3,0,0-.2.1-.3.1h-.3c-.1,0-.2,0-.3-.1h0Z"/>
    <path class="st1" d="M169.4,39.2s-.1-.2-.1-.3v-11.4h-3.7c-.1,0-.2,0-.3-.1,0,0-.1-.2-.1-.3v-.3c0-.1,0-.2.1-.3,0,0,.2-.1.3-.1h8.4c.1,0,.2,0,.3.1s.1.2.1.3v.3c0,.1,0,.2-.1.3s-.2.1-.3.1h-3.6v11.4c0,.1,0,.2-.1.3,0,0-.2.1-.3.1h-.3c-.1,0-.2,0-.3-.1h0Z"/>
  </g>
  <path class="st0" d="M146.6,65.2h0c-1.4-.1-2.8-.3-4.1-.5-.5-.1-.9-.6-.8-1.2.1-.5.6-.9,1.2-.8,1.3.3,2.6.4,3.9.5.6,0,1,.5.9,1.1,0,.5-.5,1-1,1h0ZM138.7,63.6c-.1,0-.2,0-.3,0-1.3-.4-2.6-1-3.9-1.6-.5-.2-.7-.9-.5-1.4s.9-.7,1.4-.5c1.2.6,2.4,1.1,3.6,1.5.5.2.8.8.6,1.3-.1.4-.5.7-1,.7h0ZM131.4,60c-.2,0-.4,0-.6-.2-1.2-.8-2.3-1.6-3.3-2.6-.4-.4-.5-1-.1-1.4s1-.5,1.4-.1c1,.9,2,1.7,3.1,2.4.5.3.6.9.3,1.4-.2.3-.5.4-.9.4h0ZM125.3,54.7c-.3,0-.6-.1-.8-.3-.9-1-1.8-2.2-2.6-3.3-.3-.5-.2-1.1.3-1.4.5-.3,1.1-.2,1.4.3.7,1.1,1.5,2.1,2.4,3.1.4.4.3,1.1,0,1.4-.2.2-.4.3-.7.3h0ZM120.8,48c-.4,0-.7-.2-.9-.6-.6-1.2-1.2-2.5-1.6-3.9-.2-.5.1-1.1.6-1.3s1.1.1,1.3.6c.4,1.2.9,2.5,1.5,3.6.2.5,0,1.1-.4,1.4-.1,0-.3.1-.4.1h0Z"/>
</svg>