<?xml version="1.0" encoding="UTF-8"?>
<svg id="Layer_1" xmlns="http://www.w3.org/2000/svg" version="1.1" viewBox="0 0 193 60">
  <!-- Generator: Adobe Illustrator 29.6.0, SVG Export Plug-In . SVG Version: 2.1.1 Build 207)  -->
  <defs>
    <style>
      .st0 {
        fill: #f7921e;
      }

      .st1 {
        fill: #fff;
      }

      .st2 {
        fill: #223740;
      }

      .st3 {
        fill: #e5833b;
      }
    </style>
  </defs>
  <circle class="st0" cx="144.9" cy="30" r="25.8"/>
  <path class="st3" d="M118,21.5c-.1,0-.2,0-.3,0-.5-.2-.7-.7-.6-1.2.4-1.2.9-2.4,1.5-3.5.2-.5.8-.6,1.2-.4.5.2.6.8.4,1.2-.5,1.1-1,2.2-1.4,3.3-.1.4-.5.6-.9.6ZM121.3,14.9c-.2,0-.4,0-.5-.2-.4-.3-.5-.9-.2-1.3.7-1.1,1.5-2.1,2.3-3,.3-.4.9-.4,1.3,0,.4.3.4.9,0,1.3-.8.9-1.5,1.8-2.2,2.8-.2.3-.5.4-.8.4ZM126.2,9.4c-.3,0-.5-.1-.7-.3-.3-.4-.3-1,0-1.3,1-.8,2-1.6,3-2.3.4-.3,1-.2,1.3.3.3.4.2,1-.3,1.3-1,.7-2,1.4-2.8,2.2-.2.2-.4.2-.6.2ZM132.3,5.3c-.3,0-.7-.2-.8-.5-.2-.5,0-1,.4-1.2,1.1-.6,2.3-1.1,3.5-1.5.5-.2,1,0,1.2.6.2.5,0,1-.6,1.2-1.1.4-2.2.8-3.3,1.4-.1,0-.3,0-.4,0ZM139.3,2.9c-.4,0-.8-.3-.9-.7-.1-.5.2-1,.7-1.1,1.2-.2,2.5-.4,3.8-.5.5,0,1,.4,1,.9,0,.5-.4,1-.9,1-1.2,0-2.4.2-3.6.5,0,0-.1,0-.2,0Z"/>
  <g>
    <path class="st2" d="M28.1,39.4c-.1-.1-.2-.3-.2-.5v-14.3h-4.9c-.2,0-.3,0-.5-.2-.1-.1-.2-.3-.2-.5v-3c0-.2,0-.4.2-.5.1-.1.3-.2.5-.2h14.9c.2,0,.4,0,.5.2s.2.3.2.5v3c0,.2,0,.4-.2.5s-.3.2-.5.2h-4.9v14.3c0,.2,0,.3-.2.5s-.3.2-.5.2h-3.7c-.2,0-.3,0-.5-.2Z"/>
    <path class="st2" d="M42.5,38c-1.5-1.3-2.3-3.1-2.4-5.6,0-.5,0-1.3,0-2.4s0-1.9,0-2.4c0-2.4.9-4.3,2.4-5.6,1.5-1.3,3.6-2,6.1-2s4.6.7,6.1,2c1.5,1.3,2.3,3.2,2.4,5.6,0,1.1,0,1.9,0,2.4s0,1.3,0,2.4c0,2.5-.9,4.3-2.4,5.6-1.5,1.3-3.5,1.9-6.1,1.9s-4.6-.6-6.1-1.9ZM51.1,35c.6-.6.9-1.5,1-2.8,0-1.1,0-1.8,0-2.3s0-1.2,0-2.3c0-1.3-.4-2.2-1-2.8s-1.4-.9-2.4-.9-1.8.3-2.4.9c-.6.6-.9,1.5-1,2.8,0,.5,0,1.3,0,2.3s0,1.7,0,2.3c0,1.3.4,2.2,1,2.8.6.6,1.4.9,2.4.9s1.8-.3,2.4-.9Z"/>
    <path class="st2" d="M62.5,38c-1.5-1.3-2.2-3.2-2.2-5.8v-11.3c0-.2,0-.4.2-.5s.3-.2.5-.2h3.6c.2,0,.4,0,.5.2s.2.3.2.5v11.3c0,1.2.3,2.1.8,2.7.6.6,1.4.9,2.4.9s1.9-.3,2.4-.9c.6-.6.9-1.5.9-2.7v-11.3c0-.2,0-.4.2-.5s.3-.2.5-.2h3.6c.2,0,.4,0,.5.2.1.1.2.3.2.5v11.3c0,2.6-.7,4.5-2.2,5.8-1.5,1.3-3.5,1.9-6,1.9s-4.6-.6-6.1-1.9Z"/>
    <path class="st2" d="M80.7,39.4c-.1-.1-.2-.3-.2-.5v-18c0-.2,0-.4.2-.5s.3-.2.5-.2h7.5c2.4,0,4.3.5,5.7,1.6,1.4,1.1,2,2.7,2,4.7s-.3,2.4-.9,3.3c-.6.9-1.4,1.6-2.5,2.1l3.8,6.8c0,.1,0,.2,0,.3,0,.1,0,.3-.2.4s-.3.2-.4.2h-3.7c-.5,0-.9-.2-1.1-.7l-3.2-6.1h-2.8v6.1c0,.2,0,.4-.2.5s-.3.2-.5.2h-3.6c-.2,0-.3,0-.5-.2ZM88.7,28.8c.8,0,1.5-.2,1.9-.6.4-.4.7-1,.7-1.7s-.2-1.3-.6-1.8-1.1-.7-2-.7h-3.2v4.8h3.2Z"/>
    <path class="st2" d="M102.3,39.1c-1.3-.5-2.2-1.2-2.8-2s-1-1.8-1-2.8c0-.1,0-.3.2-.4.1-.1.3-.2.4-.2h3.5c.2,0,.4,0,.5.1.1,0,.3.2.4.4.2.5.6.9,1.2,1.2s1.2.5,2.1.5,1.9-.2,2.4-.5c.6-.3.8-.8.8-1.4s-.1-.7-.4-1c-.3-.3-.7-.5-1.3-.7-.6-.2-1.5-.4-2.7-.7-2.2-.5-3.9-1.1-5-2-1.1-.9-1.6-2.2-1.6-3.8s.3-2.1.9-3c.6-.9,1.5-1.6,2.7-2.1,1.2-.5,2.5-.7,4.1-.7s3,.3,4.2.8c1.2.6,2.1,1.3,2.7,2.1.6.8.9,1.7,1,2.5,0,.2,0,.3-.2.4-.1.1-.2.2-.4.2h-3.7c-.2,0-.4,0-.5-.1s-.3-.2-.4-.4c-.1-.4-.4-.8-.9-1.1-.5-.3-1.1-.4-1.8-.4s-1.5.1-1.9.4c-.4.3-.7.7-.7,1.3s.1.7.4,1c.2.3.7.5,1.2.7.6.2,1.4.4,2.4.6,1.7.3,3.1.7,4.1,1.2,1,.5,1.8,1.1,2.3,1.8.5.7.7,1.7.7,2.8s-.4,2.3-1.1,3.2c-.7.9-1.7,1.6-3,2.1-1.3.5-2.7.7-4.3.7s-3.3-.3-4.5-.8Z"/>
    <path class="st1" d="M123.7,35.7c0,0-.1-.2-.1-.3v-11c0-.1,0-.2.1-.3,0,0,.2-.1.3-.1h4.1c1.2,0,2.1.3,2.8.9s1,1.5,1,2.6-.3,2-1,2.6c-.7.6-1.6.9-2.8.9h-3.4v4.5c0,.1,0,.2-.1.3,0,0-.2.1-.3.1h-.3c-.1,0-.2,0-.3-.1ZM128,30c1,0,1.7-.2,2.2-.6.5-.4.7-1,.7-1.8s-.2-1.4-.7-1.8c-.5-.4-1.2-.6-2.2-.6h-3.3v5h3.3Z"/>
    <path class="st1" d="M133.7,31.3c0-.3,0-.8,0-1.4s0-1.1,0-1.4c0-1.5.5-2.7,1.2-3.5.8-.8,1.9-1.2,3.2-1.2s2.4.4,3.2,1.2c.8.8,1.2,1.9,1.2,3.5,0,.7,0,1.1,0,1.4s0,.7,0,1.4c0,3.1-1.6,4.7-4.5,4.7s-4.4-1.6-4.5-4.7ZM140.6,34.1c.6-.6.9-1.5,1-2.8,0-.7,0-1.1,0-1.3s0-.7,0-1.3c0-1.3-.4-2.2-1-2.8-.6-.6-1.4-.9-2.4-.9s-1.8.3-2.4.9c-.6.6-.9,1.5-1,2.8,0,.3,0,.8,0,1.3s0,1,0,1.3c0,1.3.4,2.2,1,2.8s1.4.9,2.4.9,1.8-.3,2.4-.9Z"/>
    <path class="st1" d="M145.4,35.7c0,0-.1-.2-.1-.3v-11.1c0-.1,0-.2.1-.3,0,0,.2-.1.3-.1h.3c.1,0,.2,0,.3.1,0,0,.1.2.1.3v11.1c0,.1,0,.2-.1.3s-.2.1-.3.1h-.3c-.1,0-.2,0-.3-.1Z"/>
    <path class="st1" d="M149.7,35.7c0,0-.1-.2-.1-.3v-11c0-.1,0-.2.1-.3,0,0,.2-.1.3-.1h.4c.1,0,.3,0,.4.2l6.2,9.5v-9.3c0-.1,0-.2.1-.3,0,0,.2-.1.3-.1h.3c.1,0,.2,0,.3.1,0,0,.1.2.1.3v11c0,.1,0,.2-.1.3,0,0-.2.1-.3.1h-.4c-.1,0-.3,0-.4-.2l-6.2-9.5v9.3c0,.1,0,.2-.1.3,0,0-.2.1-.3.1h-.3c-.1,0-.2,0-.3-.1Z"/>
    <path class="st1" d="M163.8,35.7c0,0-.1-.2-.1-.3v-10.4h-3.3c-.1,0-.2,0-.3-.1,0,0-.1-.2-.1-.3v-.3c0-.1,0-.2.1-.3,0,0,.2-.1.3-.1h7.7c.1,0,.2,0,.3.1s.1.2.1.3v.3c0,.1,0,.2-.1.3,0,0-.2.1-.3.1h-3.3v10.4c0,.1,0,.2-.1.3,0,0-.2.1-.3.1h-.3c-.1,0-.2,0-.3-.1Z"/>
  </g>
  <path class="st3" d="M143,59.4s0,0,0,0c-1.3,0-2.5-.3-3.8-.5-.5-.1-.8-.6-.7-1.1.1-.5.6-.8,1.1-.7,1.2.2,2.4.4,3.6.5.5,0,.9.5.9,1,0,.5-.4.9-.9.9ZM135.7,58c0,0-.2,0-.3,0-1.2-.4-2.4-.9-3.5-1.5-.5-.2-.6-.8-.4-1.2.2-.5.8-.6,1.2-.4,1.1.5,2.2,1,3.3,1.4.5.2.7.7.6,1.2-.1.4-.5.6-.9.6ZM129.1,54.7c-.2,0-.4,0-.5-.2-1.1-.7-2.1-1.5-3-2.3-.4-.3-.4-.9,0-1.3.3-.4.9-.4,1.3,0,.9.8,1.9,1.5,2.8,2.2.4.3.5.9.3,1.3-.2.3-.5.4-.8.4ZM123.5,49.8c-.3,0-.5-.1-.7-.3-.8-.9-1.6-2-2.3-3-.3-.4-.2-1,.2-1.3.4-.3,1-.2,1.3.2.7,1,1.4,1.9,2.2,2.8.3.4.3,1,0,1.3-.2.2-.4.2-.6.2ZM119.4,43.7c-.3,0-.7-.2-.8-.5-.6-1.1-1.1-2.3-1.5-3.5-.2-.5,0-1,.6-1.2.5-.2,1,0,1.2.6.4,1.1.9,2.2,1.4,3.3.2.5,0,1-.4,1.2-.1,0-.3,0-.4,0Z"/>
</svg>