<svg id="Layer_1" width="193" height="60" xmlns="http://www.w3.org/2000/svg" version="1.1" viewBox="0 0 193 60">
  <!-- Generator: Adobe Illustrator 29.6.0, SVG Export Plug-In . SVG Version: 2.1.1 Build 207)  -->
  <defs>
    <style>
      .st0 {
        fill: #f7921e;
      }

      .st1 {
        fill: #fff;
      }

      .st2 {
        fill: #223740;
      }
    </style>
  </defs>
  <circle class="st0" cx="144.8" cy="30" r="25.9"/>
  <path class="st0" d="M117.8,21.5c0,0-.2,0-.3,0-.5-.2-.7-.7-.6-1.2.4-1.2.9-2.4,1.5-3.5.2-.5.8-.7,1.2-.4.5.2.7.8.4,1.2-.5,1.1-1,2.2-1.4,3.3-.1.4-.5.6-.9.6ZM121.1,14.9c-.2,0-.4,0-.5-.2-.4-.3-.5-.9-.2-1.3.7-1.1,1.5-2.1,2.3-3,.3-.4.9-.4,1.3,0s.4.9,0,1.3c-.8.9-1.5,1.8-2.2,2.8-.2.3-.5.4-.8.4h0ZM126,9.3c-.3,0-.5-.1-.7-.3-.3-.4-.3-1,0-1.3,1-.8,2-1.6,3-2.3.4-.3,1-.2,1.3.3.3.4.2,1-.3,1.3-1,.7-2,1.4-2.9,2.2-.2.1-.4.2-.6.2h0ZM132.2,5.2c-.3,0-.7-.2-.8-.5-.2-.5,0-1,.4-1.2,1.1-.6,2.3-1.1,3.5-1.5.5-.2,1,0,1.2.6.2.5,0,1-.6,1.2-1.1.4-2.2.9-3.3,1.4-.1,0-.3,0-.4,0h0ZM139.2,2.9c-.4,0-.8-.3-.9-.7,0-.5.2-1,.7-1.1,1.2-.2,2.5-.4,3.8-.5.5,0,.9.4,1,.9,0,.5-.4.9-.9,1-1.2,0-2.4.2-3.6.5h-.2,0Z"/>
  <g>
    <path class="st2" d="M28.1,39.3s-.2-.3-.2-.5v-14.2h-4.8c-.2,0-.3,0-.5-.2-.2-.2-.2-.3-.2-.5v-2.9c0-.2,0-.4.2-.5.2-.1.3-.2.5-.2h14.7c.2,0,.4,0,.5.2s.2.3.2.5v2.9c0,.2,0,.4-.2.5s-.3.2-.5.2h-4.9v14.2c0,.2,0,.3-.2.5s-.3.2-.5.2h-3.6c-.2,0-.3,0-.5-.2h0Z"/>
    <path class="st2" d="M42.3,37.8c-1.5-1.3-2.3-3.1-2.3-5.6v-4.7c0-2.4.9-4.3,2.4-5.6s3.5-2,6-2,4.5.7,6,2c1.5,1.3,2.3,3.2,2.4,5.6,0,1.1,0,1.8,0,2.4s0,1.3,0,2.3c0,2.4-.9,4.3-2.3,5.6s-3.5,1.9-6.1,1.9-4.6-.6-6.1-1.9h0ZM50.8,34.9c.6-.6.9-1.5.9-2.8,0-1.1,0-1.8,0-2.3s0-1.2,0-2.3c0-1.2-.4-2.2-1-2.8s-1.4-.9-2.4-.9-1.8.3-2.4.9-.9,1.5-1,2.8v4.5c0,1.2.4,2.2,1,2.8.6.6,1.4.9,2.4.9s1.8-.3,2.4-.9Z"/>
    <path class="st2" d="M62,37.8c-1.4-1.3-2.2-3.2-2.2-5.7v-11.1c0-.2,0-.4.2-.5s.3-.2.5-.2h3.5c.2,0,.4,0,.5.2s.2.3.2.5v11.1c0,1.2.3,2.1.8,2.7.5.6,1.4.9,2.4.9s1.8-.3,2.4-.9c.6-.6.8-1.5.8-2.6v-11.1c0-.2,0-.4.2-.5s.3-.2.5-.2h3.5c.2,0,.4,0,.5.2.1.1.2.3.2.5v11.1c0,2.5-.7,4.4-2.2,5.7s-3.4,1.9-6,1.9-4.6-.6-6-1.9h0Z"/>
    <path class="st2" d="M80,39.3s-.2-.3-.2-.5v-17.8c0-.2,0-.4.2-.5s.3-.2.5-.2h7.4c2.4,0,4.2.5,5.6,1.6s2,2.6,2,4.6-.3,2.3-.9,3.2c-.6.9-1.4,1.6-2.5,2l3.8,6.7s0,.2,0,.3c0,.2,0,.3-.2.4s-.2.2-.4.2h-3.6c-.5,0-.9-.2-1.1-.8l-3.1-6h-2.8v6.1c0,.2,0,.4-.2.5s-.3.2-.5.2h-3.5c-.2,0-.3,0-.5-.2h0ZM87.9,28.8c.8,0,1.5-.2,1.9-.6.5-.4.7-1,.7-1.7s-.2-1.3-.6-1.7-1.1-.6-1.9-.6h-3.1v4.7h3.1,0Z"/>
    <path class="st2" d="M101.4,39c-1.2-.5-2.2-1.2-2.8-2s-1-1.7-1-2.7c0-.2,0-.3.2-.4s.3-.2.4-.2h3.5c.2,0,.4,0,.5.1.2,0,.3.2.4.4.2.5.6.9,1.1,1.2s1.2.5,2.1.5,1.8-.2,2.4-.5.8-.8.8-1.4-.2-.7-.4-1c-.3-.2-.7-.5-1.3-.7s-1.5-.4-2.7-.7c-2.2-.5-3.8-1.1-4.9-2-1.1-.9-1.6-2.1-1.6-3.8s.3-2.1.9-3,1.5-1.6,2.6-2,2.5-.8,4-.8,2.9.3,4.1.8c1.2.5,2,1.2,2.7,2.1.6.8.9,1.7,1,2.4,0,.2,0,.3-.2.4-.1.1-.2.2-.4.2h-3.6c-.2,0-.4,0-.5-.1s-.3-.2-.4-.4c-.1-.4-.4-.8-.9-1.1-.5-.3-1.1-.5-1.8-.5s-1.4.2-1.9.5c-.5.3-.7.7-.7,1.3s.1.7.4,1c.2.2.6.5,1.2.7.5.2,1.4.4,2.4.6,1.7.3,3,.7,4.1,1.2,1,.5,1.7,1.1,2.2,1.8s.7,1.7.7,2.8-.4,2.3-1.1,3.2-1.7,1.6-2.9,2.1c-1.3.5-2.7.7-4.3.7s-3.2-.2-4.4-.8h0Z"/>
    <path class="st1" d="M123.5,35.7s0-.1,0-.3v-11.1c0-.1,0-.2,0-.3,0,0,.1-.1.3-.1h4.1c1.2,0,2.2.3,2.8.9s1,1.5,1,2.6-.4,2-1,2.6c-.7.6-1.6.9-2.8.9h-3.4v4.5c0,.1,0,.2-.1.3,0,0-.2,0-.3,0h-.3c-.1,0-.2,0-.3,0h0ZM127.8,30c1,0,1.7-.2,2.2-.6.5-.4.7-1,.7-1.9s-.2-1.4-.7-1.9-1.2-.6-2.2-.6h-3.3v5h3.3Z"/>
    <path class="st1" d="M133.5,31.3v-2.8c0-1.5.5-2.7,1.2-3.5s1.9-1.2,3.2-1.2,2.4.4,3.2,1.2c.8.8,1.2,2,1.2,3.5,0,.7,0,1.2,0,1.4s0,.7,0,1.4c0,3.1-1.6,4.7-4.5,4.7s-4.4-1.6-4.5-4.7ZM140.4,34c.6-.6.9-1.5,1-2.8,0-.7,0-1.1,0-1.3s0-.7,0-1.3c0-1.3-.4-2.2-1-2.8-.6-.6-1.4-.9-2.4-.9s-1.8.3-2.4.9c-.6.6-.9,1.5-1,2.8v2.7c0,1.3.4,2.2,1,2.8s1.4.9,2.4.9,1.8-.3,2.4-.9h0Z"/>
    <path class="st1" d="M145.3,35.7s0-.1,0-.3v-11.1c0-.1,0-.2,0-.3,0,0,.1,0,.3,0h.3c.1,0,.2,0,.3,0,0,0,0,.1,0,.3v11.1c0,.1,0,.2,0,.3s-.1,0-.3,0h-.3c-.1,0-.2,0-.3,0Z"/>
    <path class="st1" d="M149.5,35.7s0-.1,0-.3v-11.1c0-.1,0-.2,0-.3,0,0,.1-.1.3-.1h.4c.1,0,.3,0,.4.2l6.2,9.5v-9.3c0-.1,0-.2,0-.3,0,0,.1-.1.3-.1h.3c.1,0,.2,0,.3,0,0,0,0,.2,0,.3v11c0,.1,0,.2,0,.3,0,0-.1.1-.3.1h-.4c-.1,0-.3,0-.4-.2l-6.2-9.5v9.3c0,.1,0,.2-.1.3,0,0-.2,0-.3,0h-.3c-.1,0-.2,0-.3,0h0Z"/>
    <path class="st1" d="M163.7,35.7s0-.1,0-.3v-10.4h-3.3c-.1,0-.2,0-.3,0,0,0,0-.1,0-.3v-.3c0-.1,0-.2,0-.3,0,0,.1-.1.3-.1h7.7c.1,0,.2,0,.3,0s0,.2,0,.3v.3c0,.1,0,.2-.1.3s-.2,0-.3,0h-3.3v10.4c0,.1,0,.2-.1.3,0,0-.2,0-.3,0h-.3c-.1,0-.2,0-.3,0h0Z"/>
  </g>
  <path class="st0" d="M142.8,59.5h0c-1.3,0-2.5-.3-3.8-.5-.5,0-.8-.6-.7-1.1,0-.5.6-.8,1.1-.7,1.2.2,2.4.4,3.6.5.5,0,.9.5.9,1,0,.5-.4.9-.9.9h0ZM135.5,58c0,0-.2,0-.3,0-1.2-.4-2.4-.9-3.5-1.5-.5-.2-.7-.8-.4-1.2s.8-.7,1.2-.4c1.1.5,2.2,1,3.3,1.4.5.2.7.7.6,1.2-.1.4-.5.6-.9.6h0ZM128.9,54.7c-.2,0-.4,0-.5-.1-1.1-.7-2.1-1.5-3-2.3-.4-.3-.4-.9,0-1.3s.9-.4,1.3,0c.9.8,1.9,1.5,2.8,2.2.4.3.5.9.3,1.3-.2.3-.5.4-.8.4h0ZM123.3,49.8c-.3,0-.5-.1-.7-.3-.8-.9-1.6-2-2.3-3-.3-.4-.2-1,.2-1.3.4-.3,1-.2,1.3.2.7,1,1.4,2,2.2,2.8.3.4.3,1,0,1.3-.2.1-.4.2-.6.2h0ZM119.2,43.7c-.3,0-.7-.2-.8-.5-.6-1.1-1.1-2.3-1.5-3.5-.2-.5,0-1,.6-1.2s1,0,1.2.6c.4,1.1.9,2.2,1.4,3.3.2.5,0,1-.4,1.2-.1,0-.3,0-.4,0h0Z"/>
</svg>