<?xml version="1.0" encoding="UTF-8"?>
<svg id="Layer_1" xmlns="http://www.w3.org/2000/svg" version="1.1" viewBox="0 0 192 66">
  <!-- Generator: Adobe Illustrator 29.6.0, SVG Export Plug-In . SVG Version: 2.1.1 Build 207)  -->
  <defs>
    <style>
      .st0 {
        fill: #f7921e;
      }

      .st1 {
        fill: #fff;
      }

      .st2 {
        fill: #e5833b;
      }
    </style>
  </defs>
  <circle class="st0" cx="149.9" cy="33" r="28.7"/>
  <path class="st2" d="M119.9,23.6c-.1,0-.2,0-.3,0-.5-.2-.8-.8-.6-1.3.5-1.3,1-2.7,1.7-3.9.3-.5.9-.7,1.4-.5.5.3.7.9.5,1.4-.6,1.2-1.1,2.4-1.6,3.7-.1.4-.5.7-1,.7ZM123.6,16.2c-.2,0-.4,0-.6-.2-.5-.3-.6-1-.3-1.4.8-1.2,1.7-2.3,2.6-3.4.4-.4,1-.5,1.5,0,.4.4.5,1,0,1.5-.9,1-1.7,2.1-2.4,3.2-.2.3-.5.5-.9.5ZM129,10.1c-.3,0-.6-.1-.8-.4-.4-.4-.3-1.1,0-1.5,1.1-.9,2.2-1.8,3.4-2.6.5-.3,1.1-.2,1.4.3.3.5.2,1.1-.3,1.4-1.1.7-2.2,1.6-3.2,2.4-.2.2-.4.3-.7.3ZM135.9,5.5c-.4,0-.7-.2-.9-.6-.3-.5,0-1.1.5-1.4,1.3-.6,2.6-1.2,3.9-1.6.5-.2,1.1.1,1.3.6.2.5-.1,1.1-.6,1.3-1.3.4-2.5.9-3.7,1.5-.1,0-.3.1-.5.1ZM143.7,2.9c-.5,0-.9-.3-1-.8-.1-.6.3-1.1.8-1.2,1.4-.3,2.8-.5,4.2-.6.6,0,1.1.4,1.1,1,0,.6-.4,1.1-1,1.1-1.3,0-2.7.3-4,.5,0,0-.1,0-.2,0Z"/>
  <g>
    <path class="st1" d="M19.9,43.5c-.2-.2-.2-.3-.2-.5v-16h-5.5c-.2,0-.4,0-.5-.2-.2-.2-.2-.3-.2-.5v-3.3c0-.2,0-.4.2-.6.2-.1.3-.2.5-.2h16.6c.2,0,.4,0,.6.2s.2.3.2.6v3.3c0,.2,0,.4-.2.6s-.3.2-.6.2h-5.5v16c0,.2,0,.4-.2.5s-.3.2-.6.2h-4.1c-.2,0-.4,0-.5-.2Z"/>
    <path class="st1" d="M35.9,41.9c-1.7-1.4-2.5-3.5-2.6-6.3,0-.6,0-1.5,0-2.6s0-2.1,0-2.7c.1-2.7,1-4.8,2.7-6.3,1.7-1.5,4-2.2,6.8-2.2s5.1.7,6.8,2.2c1.7,1.5,2.6,3.6,2.7,6.3,0,1.2,0,2.1,0,2.7s0,1.5,0,2.6c-.1,2.8-1,4.8-2.6,6.3-1.7,1.4-3.9,2.1-6.8,2.1s-5.2-.7-6.8-2.1ZM45.5,38.5c.7-.7,1-1.7,1.1-3.1,0-1.2,0-2,0-2.5s0-1.4,0-2.5c0-1.4-.4-2.4-1.1-3.1s-1.6-1-2.7-1-2,.3-2.7,1c-.7.7-1,1.7-1.1,3.1,0,.6,0,1.4,0,2.5s0,1.9,0,2.5c0,1.4.4,2.4,1.1,3.1.7.7,1.5,1,2.7,1s2-.3,2.7-1Z"/>
    <path class="st1" d="M58.1,41.9c-1.6-1.4-2.4-3.6-2.4-6.4v-12.6c0-.2,0-.4.2-.6s.3-.2.5-.2h4c.2,0,.4,0,.6.2s.2.3.2.6v12.5c0,1.3.3,2.3.9,3,.6.7,1.5,1,2.7,1s2.1-.3,2.7-1c.6-.7,1-1.7,1-3v-12.5c0-.2,0-.4.2-.6s.3-.2.5-.2h4c.2,0,.4,0,.6.2.1.1.2.3.2.6v12.6c0,2.9-.8,5-2.4,6.4-1.6,1.4-3.9,2.1-6.7,2.1s-5.2-.7-6.8-2.1Z"/>
    <path class="st1" d="M78.4,43.5c-.2-.2-.2-.3-.2-.5v-20c0-.2,0-.4.2-.6s.3-.2.5-.2h8.4c2.7,0,4.8.6,6.3,1.8,1.5,1.2,2.3,3,2.3,5.2s-.3,2.7-1,3.7c-.7,1-1.6,1.8-2.8,2.3l4.2,7.6c0,.1,0,.2,0,.3,0,.2,0,.3-.2.4s-.3.2-.4.2h-4.1c-.6,0-1-.3-1.3-.8l-3.5-6.8h-3.1v6.8c0,.2,0,.4-.2.6s-.3.2-.6.2h-4c-.2,0-.4,0-.5-.2ZM87.3,31.7c.9,0,1.7-.2,2.2-.7.5-.5.7-1.1.7-1.9s-.2-1.5-.7-2-1.2-.7-2.2-.7h-3.5v5.3h3.5Z"/>
    <path class="st1" d="M102.5,43.1c-1.4-.6-2.4-1.3-3.2-2.3s-1.1-2-1.1-3.1c0-.2,0-.3.2-.4.1-.1.3-.2.5-.2h3.9c.2,0,.4,0,.6.1.2,0,.3.2.5.4.3.5.7,1,1.3,1.3s1.4.5,2.4.5,2.1-.2,2.7-.6c.6-.4.9-.9.9-1.5s-.2-.8-.5-1.1c-.3-.3-.8-.5-1.5-.8-.7-.2-1.7-.5-3-.8-2.5-.5-4.3-1.3-5.5-2.3-1.2-1-1.8-2.4-1.8-4.3s.3-2.4,1-3.4c.7-1,1.7-1.8,3-2.3,1.3-.6,2.8-.8,4.5-.8s3.3.3,4.6.9c1.3.6,2.3,1.4,3,2.3.7.9,1.1,1.9,1.1,2.8,0,.2,0,.3-.2.5-.1.1-.3.2-.5.2h-4.1c-.2,0-.4,0-.6-.1s-.3-.2-.4-.4c-.1-.5-.5-.9-1-1.2-.5-.3-1.2-.5-2-.5s-1.6.2-2.1.5c-.5.3-.7.8-.7,1.4s.1.8.4,1.1c.3.3.7.6,1.4.8.6.2,1.5.5,2.7.7,1.9.4,3.4.8,4.6,1.3,1.1.5,2,1.2,2.5,2,.5.8.8,1.9.8,3.1s-.4,2.6-1.2,3.6c-.8,1-1.9,1.8-3.3,2.3-1.4.5-3,.8-4.8.8s-3.6-.3-5-.9Z"/>
    <path class="st1" d="M126.2,39.4c0,0-.1-.2-.1-.3v-12.3c0-.1,0-.2.1-.3,0,0,.2-.1.3-.1h4.6c1.3,0,2.4.3,3.2,1s1.2,1.6,1.2,2.9-.4,2.2-1.2,2.9c-.8.7-1.8,1-3.2,1h-3.8v5c0,.1,0,.2-.1.3,0,0-.2.1-.3.1h-.3c-.1,0-.2,0-.3-.1ZM131,33c1.1,0,1.9-.2,2.4-.7.5-.5.8-1.2.8-2.1s-.3-1.6-.8-2.1c-.5-.5-1.3-.7-2.4-.7h-3.7v5.5h3.7Z"/>
    <path class="st1" d="M137.4,34.5c0-.4,0-.9,0-1.6s0-1.2,0-1.6c0-1.7.5-3,1.4-3.9.9-.9,2.1-1.3,3.6-1.3s2.7.4,3.6,1.3c.9.9,1.3,2.2,1.4,3.9,0,.8,0,1.3,0,1.6s0,.8,0,1.6c0,3.5-1.7,5.2-5,5.2s-4.9-1.7-5-5.2ZM145,37.5c.7-.7,1-1.7,1.1-3.1,0-.7,0-1.2,0-1.5s0-.7,0-1.5c0-1.4-.4-2.4-1.1-3.1-.7-.7-1.6-1-2.7-1s-2,.3-2.7,1c-.7.7-1,1.7-1.1,3.1,0,.4,0,.9,0,1.5s0,1.1,0,1.5c0,1.4.4,2.4,1.1,3.1s1.6,1,2.7,1,2-.3,2.7-1Z"/>
    <path class="st1" d="M150.4,39.4c0,0-.1-.2-.1-.3v-12.3c0-.1,0-.2.1-.3,0,0,.2-.1.3-.1h.4c.1,0,.2,0,.3.1,0,0,.1.2.1.3v12.3c0,.1,0,.2-.1.3s-.2.1-.3.1h-.4c-.1,0-.2,0-.3-.1Z"/>
    <path class="st1" d="M155.1,39.4c0,0-.1-.2-.1-.3v-12.3c0-.1,0-.2.1-.3,0,0,.2-.1.3-.1h.4c.2,0,.3,0,.4.2l6.9,10.6v-10.4c0-.1,0-.2.1-.3,0,0,.2-.1.3-.1h.3c.1,0,.2,0,.3.1,0,0,.1.2.1.3v12.3c0,.1,0,.2-.1.3,0,0-.2.1-.3.1h-.4c-.2,0-.3,0-.4-.2l-6.9-10.5v10.4c0,.1,0,.2-.1.3,0,0-.2.1-.3.1h-.3c-.1,0-.2,0-.3-.1Z"/>
    <path class="st1" d="M170.8,39.4c0,0-.1-.2-.1-.3v-11.6h-3.7c-.1,0-.2,0-.3-.1,0,0-.1-.2-.1-.3v-.3c0-.1,0-.2.1-.3,0,0,.2-.1.3-.1h8.6c.1,0,.2,0,.3.1s.1.2.1.3v.3c0,.1,0,.2-.1.3,0,0-.2.1-.3.1h-3.7v11.6c0,.1,0,.2-.1.3,0,0-.2.1-.3.1h-.3c-.1,0-.2,0-.3-.1Z"/>
  </g>
  <path class="st2" d="M147.7,65.7s0,0,0,0c-1.4,0-2.8-.3-4.2-.6-.6-.1-.9-.7-.8-1.2.1-.6.7-.9,1.2-.8,1.3.3,2.6.4,4,.5.6,0,1,.5,1,1.1,0,.5-.5,1-1,1ZM139.6,64.1c-.1,0-.2,0-.3,0-1.3-.5-2.7-1-3.9-1.6-.5-.3-.7-.9-.5-1.4.3-.5.9-.7,1.4-.5,1.2.6,2.4,1.1,3.7,1.5.5.2.8.8.6,1.3-.1.4-.5.7-1,.7ZM132.2,60.5c-.2,0-.4,0-.6-.2-1.2-.8-2.3-1.7-3.4-2.6-.4-.4-.5-1,0-1.5.4-.4,1-.5,1.5,0,1,.9,2.1,1.7,3.2,2.4.5.3.6,1,.3,1.4-.2.3-.5.5-.9.5ZM126.1,55c-.3,0-.6-.1-.8-.3-.9-1.1-1.8-2.2-2.6-3.4-.3-.5-.2-1.1.3-1.4.5-.3,1.1-.2,1.4.3.7,1.1,1.6,2.2,2.4,3.2.4.4.3,1.1,0,1.5-.2.2-.4.3-.7.3ZM121.4,48.2c-.4,0-.7-.2-.9-.6-.6-1.3-1.2-2.6-1.7-3.9-.2-.5,0-1.1.6-1.3.5-.2,1.1,0,1.3.6.4,1.3,1,2.5,1.5,3.7.3.5,0,1.1-.5,1.4-.1,0-.3.1-.5.1Z"/>
</svg>