<?xml version="1.0" encoding="UTF-8"?>
<svg xmlns:xlink="http://www.w3.org/1999/xlink" xmlns="http://www.w3.org/2000/svg" width="202" height="63" viewBox="0 0 202 63" fill="none">
  <!-- Generator: Adobe Illustrator 29.6.0, SVG Export Plug-In . SVG Version: 2.1.1 Build 207)  -->
  <defs>
    <style>
      .st0 {
        fill: #063a41;
      }
    </style>
  </defs>
  <path class="st0" d="M188.8,38.7c1.4,0,2.6,1,2.7,2.5,0,1.4-1,2.6-2.5,2.7-1.4,0-2.6-1-2.7-2.5h0c0-1.5,1.1-2.7,2.5-2.7M188.8,38.3c-1.6,0-2.9,1.3-2.9,2.9s1.3,2.9,2.9,2.9,2.9-1.3,2.9-2.9c0-1.6-1.3-2.9-2.9-2.9ZM189.2,41.3c.4,0,.6-.4.6-.8s-.5-.8-1.1-.8h-.9v2.9h.5v-1.3h.4l.6,1c.2.3.2.3.5.3h.2s-.9-1.3-.9-1.3ZM188.7,41.3h-.4v-1.3h.3c.5,0,.7.2.7.7,0,.5-.2.7-.7.7h0Z"/>
  <rect class="st0" x="50.9" y="8.8" width="10.9" height="35.3"/>
  <path class="st0" d="M121.3,40.7c-3.2,0-4.7-1.9-4.7-5.2V11.8h8.7v-2.9h-8.6V0h-10.4l-.5,8.8h-4.7v2.9h4.7v23.3c0,6,3.4,9.9,10.5,9.9s8.4-2.2,9.7-5l-.5-.5c-1.2.8-2.6,1.3-4,1.3Z"/>
  <path class="st0" d="M144.1,8.1c-11.6,0-19,8.1-19,18.6s6.9,18.3,18.7,18.3,19-8.1,19-18.6c0-10.5-7.2-18.3-18.7-18.3ZM144,42.5c-5.8,0-6.6-4.7-6.6-16s.8-15.9,6.6-15.9,6.6,4.8,6.6,16.1c0,11.1-.7,15.9-6.6,15.9Z"/>
  <path class="st0" d="M178,14.9l-.2-6.1h-10.6v35.3h10.9V15.9h0c.7-.2,1.3-.3,2-.3,2,0,4.2.8,11,4l.6-.2v-9.9c-1.3-.9-2.8-1.4-4.3-1.4-3.1,0-6.6,2-9.5,6.9Z"/>
  <path class="st0" d="M86.9,40l1.3,4.2h9.3v-27.2c0-6-4.7-9-12.5-9s-11.6,1.4-16,2.9l-.5,6.2.6.3c8.3-5.6,10.8-6.9,13.4-6.9s4.1,1.5,4.1,4.7v7.4c-12.3,2.5-19.8,4.4-19.8,12.8s3.8,9.6,10,9.6,8.2-2.2,10.1-5ZM77.6,33.4c0-5.4,1.8-6.8,9.1-8.3v13.6c-1.3,1.1-3,1.6-4.7,1.5-3.1,0-4.5-1.8-4.5-6.8Z"/>
  <circle class="st0" cx="39.7" cy="14.7" r="6.6"/>
  <polygon class="st0" points="32.4 44.2 35.9 36.4 23.6 8.8 12 8.8 27.7 44.2 32.4 44.2"/>
</svg>