<?xml version="1.0" encoding="UTF-8"?>
<svg xmlns:xlink="http://www.w3.org/1999/xlink" xmlns="http://www.w3.org/2000/svg" width="202" height="63" viewBox="0 0 202 63" fill="none">
  <!-- Generator: Adobe Illustrator 29.6.0, SVG Export Plug-In . SVG Version: 2.1.1 Build 207)  -->
  <defs>
    <style>
      .st0 {
        fill: #063a41;
      }
    </style>
  </defs>
  <g id="layer1">
    <path id="path4191" class="st0" d="M70.5,15.5c0-1.5,1.2-2.7,2.7-2.7s2.7,1.2,2.7,2.7-1.2,2.7-2.7,2.7-2.7-1.2-2.7-2.7"/>
    <path id="path4193" class="st0" d="M112.8,33.4c0-1.5,1.2-2.7,2.7-2.7s2.7,1.2,2.7,2.7-1.2,2.7-2.7,2.7-2.7-1.2-2.7-2.7"/>
    <path id="path4195" class="st0" d="M26.4,32.2c-2.3,0-3.9-1.8-3.9-4.5s1.6-4.5,3.9-4.5,3.9,1.8,3.9,4.5-1.6,4.5-3.9,4.5ZM26.4,19.4c-4.9,0-8.4,3.5-8.4,8.4s3.5,8.4,8.4,8.4,8.5-3.5,8.5-8.4-3.6-8.4-8.5-8.4"/>
    <path id="path4197" class="st0" d="M65.3,28.2c-.2-.4-.4-.7-.6-.9v-.2c-.1,0,0-.1,0-.1.2-.2.5-.5.7-.8l4.3-6.4h-5.2l-3.2,5c-.2.3-.6.4-1.1.4h-.7v-9.5c0-1.9-1.2-2.2-2.5-2.2h-2.2v22.4h4.6v-6.7h.4c.5,0,.9,0,1.1.3l2.6,4.8c.7,1.3,1.4,1.5,2.8,1.5h3.6l-2.6-4.4-1.8-3.3"/>
    <path id="path4199" class="st0" d="M87.8,19.4c-2.4,0-3.9,1-4.7,1.9l-.3.3v-.4c-.3-1-1.2-1.5-2.4-1.5h-2.1v16.2h4.6v-7.5c0-.7,0-1.4.3-1.9.5-1.7,1.9-2.8,3.7-2.8s2,.8,2,2.7v7c0,1.7.8,2.5,2.5,2.5h2.2v-10.3c0-4.1-2-6.2-5.8-6.2"/>
    <path id="path4201" class="st0" d="M73.2,19.7h-2.2v12.5s0,0,0,0v3.7h2.3s0,0,0,0h1.1s1.1,0,1.1,0h0s0,0,0,0v-13.7c0-1.7-.8-2.5-2.4-2.5"/>
    <path id="path4203" class="st0" d="M44.5,32.2c-2.3,0-3.9-1.8-3.9-4.5s1.6-4.5,3.9-4.5,3.9,1.8,3.9,4.5-1.6,4.5-3.9,4.5ZM44.5,19.4c-4.9,0-8.4,3.5-8.4,8.4s3.5,8.4,8.4,8.4,8.5-3.5,8.5-8.4-3.6-8.4-8.5-8.4"/>
    <path id="path4225" class="st0" d="M143.4,32.2c-2.3,0-3.9-1.8-3.9-4.5s1.6-4.5,3.9-4.5,3.9,1.8,3.9,4.5-1.6,4.5-3.9,4.5ZM143.4,19.4c-4.9,0-8.4,3.5-8.4,8.4s3.5,8.4,8.4,8.4,8.5-3.5,8.5-8.4-3.6-8.4-8.5-8.4"/>
    <path id="path4227" class="st0" d="M103.3,31.5c-2.5,0-3.4-2.2-3.4-4.3s.2-3.9,3.2-3.9,3.4.4,3.4,4-1.7,4.1-3.2,4.1ZM108.9,19.7c-.9,0-1.5.3-1.9,1v.2c-.1,0-.3-.2-.3-.2-.7-.6-2.1-1.4-4.2-1.4-4.3,0-7.2,3.2-7.2,8.1s3,8.2,7.3,8.2,2.6-.3,3.5-1l.4-.3v.4c0,2.2-1.4,3.4-3.9,3.4s-2.4-.3-3.1-.6c-1-.3-1.6,0-1.9.9l-.4.9-.5,1.3.3.2c1.6.9,3.7,1.4,5.6,1.4,3.9,0,8.5-2,8.5-7.7v-14.8s-2.1,0-2.1,0"/>
    <path id="path4243" class="st0" d="M9.3,32.1h-3.8v-4.5c0-1,.4-1.5,1.2-1.6h2.6c1.8,0,3,1.2,3,3,0,1.9-1.2,3-3,3h0ZM5.5,19.9v-1.2c0-1,.4-1.5,1.4-1.6h1.9c1.6,0,2.6,1,2.6,2.6s-.7,2.7-2.6,2.7h-3.4v-2.6h0ZM14.1,24.4l-.7-.4.6-.5c.7-.6,1.8-1.9,1.8-4.2,0-3.5-2.7-5.8-7-5.8h-4.8s-.5,0-.5,0c-1.3,0-2.3,1.1-2.3,2.3v20h2.2s0,0,0,0h5.5c4.7,0,7.7-2.6,7.7-6.5s-1-4-2.6-4.9"/>
    <path id="path4245" class="st0" d="M172.4,19.4c-1.9,0-3.8.9-4.9,2.4l-.3.4-.3-.5c-.9-1.6-2.3-2.3-4.4-2.3s-3.6,1.2-4.2,1.9l-.4.5-.2-.6c-.2-.9-1-1.4-2.2-1.4h-1.9v16.1s4.4,0,4.4,0v-7.1c0-.6,0-1.2.2-1.9.4-1.7,1.6-3.6,3.5-3.4,1.2.1,1.8,1,1.8,2.8v9.6h4.4v-7.1c0-.8,0-1.4.2-1.9.4-1.6,1.6-3.3,3.4-3.3s1.9.8,1.9,2.8v7.2c0,1.6.7,2.4,2.4,2.4h2.1v-10.3c0-4.1-1.8-6.2-5.4-6.2"/>
    <path id="path4247" class="st0" d="M132.4,30.3s-1.9,2-4.4,2-4.6-1.4-4.6-4.5,1.8-4.6,4.3-4.6,1.8.3,1.9.8h0c.3,1.2,1.4,1.3,1.6,1.3h2.4s0-2.1,0-2.1c0-2.8-3.5-3.8-5.9-3.8-5.1,0-8.8,3.5-8.8,8.4s3.7,8.4,8.7,8.4,6.7-2.9,6.8-2.9v-.2c.1,0-1.8-3.2-1.8-3.2l-.3.3"/>
  </g>
</svg>