<?xml version="1.0" encoding="UTF-8"?>
<svg id="Layer_1" xmlns="http://www.w3.org/2000/svg" version="1.1" viewBox="0 0 202 50">
  <!-- Generator: Adobe Illustrator 29.6.0, SVG Export Plug-In . SVG Version: 2.1.1 Build 207)  -->
  <defs>
    <style>
      .st0 {
        fill: #063a41;
      }
    </style>
  </defs>
  <path class="st0" d="M41,11.2h8v4.2h0c.8-1.7,1.8-2.8,3-3.6,1.2-.8,2.6-1.2,4.4-1.2s.9,0,1.4,0c.5,0,.9.1,1.3.2v7.2c-.6-.2-1.1-.3-1.7-.4-.5,0-1.1-.1-1.7-.1-1.5,0-2.7.2-3.6.6-.9.4-1.5,1-2,1.8-.5.8-.8,1.7-.9,2.7-.1,1.1-.2,2.2-.2,3.5v10.7h-8V11.2"/>
  <path class="st0" d="M60.9,11.2h7.8v25.6h-7.8V11.2ZM60.6,4.4c0-1.2.4-2.1,1.2-3,.8-.8,1.8-1.2,3-1.2s2.1.4,3,1.2c.8.8,1.2,1.8,1.2,3s-.4,2.1-1.2,3c-.8.8-1.8,1.2-3,1.2s-2.1-.4-3-1.2c-.8-.8-1.2-1.8-1.2-3"/>
  <path class="st0" d="M112,25.6c-.6,0-1.3,0-2.2,0-.9,0-1.7.2-2.6.4-.8.2-1.5.6-2.1,1.1-.6.5-.9,1.2-.9,2s.4,1.6,1.2,2.1c.8.5,1.6.7,2.5.7s1.5-.1,2.2-.3c.7-.2,1.4-.5,1.9-.9.6-.4,1-.9,1.4-1.5.3-.6.5-1.3.5-2.1v-1.6h-2M114,33.6h-.1c-.9,1.3-2,2.3-3.5,2.9-1.5.6-3,.9-4.6.9s-2.3-.2-3.4-.5c-1.1-.3-2.1-.8-2.9-1.5-.8-.7-1.5-1.5-2-2.5-.5-1-.7-2.1-.7-3.4s.3-2.7.8-3.7c.5-1,1.3-1.9,2.2-2.5.9-.7,2-1.2,3.2-1.5,1.2-.4,2.4-.6,3.7-.8,1.3-.2,2.6-.3,3.8-.3,1.3,0,2.5,0,3.5,0,0-1.4-.5-2.5-1.5-3.3-1-.8-2.2-1.2-3.5-1.2s-2.5.3-3.5.8c-1.1.5-2,1.3-2.9,2.2l-4.2-4.3c1.5-1.4,3.2-2.4,5.1-3.1,2-.7,4-1,6.1-1s4.2.3,5.7.9c1.5.6,2.7,1.4,3.6,2.5.9,1.1,1.5,2.5,1.8,4.1.3,1.6.5,3.5.5,5.6v13h-7.1v-3.1Z"/>
  <path class="st0" d="M157.8,24c0,1.9.5,3.5,1.5,4.7,1,1.2,2.4,1.8,4.2,1.8s3.2-.6,4.2-1.8c1-1.2,1.5-2.7,1.5-4.7s-.5-3.5-1.5-4.7c-1-1.2-2.4-1.8-4.2-1.8s-3.2.6-4.2,1.8c-1,1.2-1.5,2.7-1.5,4.7M150.7,24c0-2,.3-3.9,1-5.5.7-1.6,1.6-3,2.7-4.2,1.2-1.2,2.5-2.1,4.1-2.7,1.6-.6,3.2-.9,5-.9s3.4.3,5,.9c1.6.6,2.9,1.5,4.1,2.7,1.2,1.2,2.1,2.6,2.7,4.2.7,1.6,1,3.5,1,5.5s-.3,3.9-1,5.5c-.7,1.6-1.6,3.1-2.7,4.2-1.2,1.2-2.5,2.1-4.1,2.7-1.6.6-3.2.9-5,.9s-3.4-.3-5-.9c-1.6-.6-2.9-1.5-4.1-2.7-1.2-1.2-2.1-2.6-2.7-4.2-.7-1.6-1-3.5-1-5.5"/>
  <path class="st0" d="M180.8,18c-1.8,0-3.3-1.5-3.3-3.3s1.5-3.3,3.3-3.3,3.3,1.5,3.3,3.3-1.5,3.3-3.3,3.3M180.8,10.6c-2.3,0-4.1,1.8-4.1,4.1s1.8,4.1,4.1,4.1,4.1-1.8,4.1-4.1-1.8-4.1-4.1-4.1"/>
  <path class="st0" d="M181.4,13.8c0,0,0-.2,0-.3,0,0-.1-.1-.2-.2,0,0-.1,0-.2,0,0,0-.2,0-.3,0h-.3v1.1h.3c.1,0,.3,0,.4,0,0,0,.2,0,.2-.1,0,0,.1-.1.1-.2,0,0,0-.2,0-.3M183,16.6h-1.2l-1.1-1.4h-.4v1.4h-1v-3.9h1.6c.2,0,.4,0,.6,0,.2,0,.3,0,.5.2.1,0,.3.2.3.3,0,.1.1.3.1.5s0,.5-.2.7c-.1.2-.3.3-.5.4l1.3,1.7Z"/>
  <path class="st0" d="M142.4,11.1v3.4h-.1c-.1-.2-.3-.5-.9-1-.7-.6-1.3-.9-2-1.3-.7-.4-1.6-.7-2.5-1-.9-.2-2.1-.4-3.3-.4-1.8,0-3.5.5-4.9,1.3-1.4.8-2.5,1.5-3.5,2.8-.9,1.3-1.5,2.5-1.9,4.2-.4,1.6-.6,3.5-.6,5.2s.3,3.8.8,5.4c.5,1.7,1.2,3.2,2.2,4.3,1.1,1.2,2.2,1.9,3.7,2.5,1.5.6,3.2.9,5.1.9,1.2,0,2.4-.3,3.7-.8,1.6-.6,2.8-1.8,3.2-2.5h0v2.5c0,1.8-.4,3.3-1.5,4.5-1.1,1.2-2.8,1.8-5.2,1.8s-2.6,0-4.3-.4c-1.4-.4-3.2-1.1-4.6-2l-3.8,5.6c2,1.5,3.9,2.4,6.1,3,2.2.6,4.4.8,6.7.8,5,0,8.5-1.3,10.9-3.8,2.4-2.5,3.4-6.2,3.4-11V11.1h-6.9M140.4,28.7c-1,1.2-2.4,1.8-4.2,1.8s-3.2-.6-4.2-1.8c-1-1.2-1.5-2.8-1.5-4.7s.5-3.5,1.5-4.7c1-1.2,2.4-1.8,4.2-1.8s3.2.6,4.2,1.8c1,1.2,1.5,2.8,1.5,4.7s-.5,3.5-1.5,4.7Z"/>
  <path class="st0" d="M38.9,17.4h-7.8v8.6c0,.7,0,1.3.2,1.9,0,.6.3,1.1.5,1.5.3.4.7.7,1.3,1,.6.2,1.3.3,2.2.3s1.1,0,1.8-.1c.8,0,1.3-.3,1.7-.6v6.6c-1,.3-2,.5-3,.6-1,.1-2.1.2-3.1.2-1.5,0-2.8-.1-4-.4-1.2-.3-2.3-.7-3.2-1.3-.9-.6-1.7-1.4-2.2-2.4-.5-1-.8-2.2-.8-3.6v-12.2h-5.5v-6.3h5.5V3.6h8.6v7.6h7.8v6.3"/>
  <polyline class="st0" points="69.7 11.2 78.2 11.2 84.7 28.6 84.8 28.6 90.8 11.2 98.7 11.2 88.6 36.7 80.3 36.7 69.7 11.2"/>
</svg>