<?xml version="1.0" encoding="UTF-8"?>
<svg xmlns:xlink="http://www.w3.org/1999/xlink" xmlns="http://www.w3.org/2000/svg" width="202" height="63" viewBox="0 0 202 63" fill="none">
  <!-- Generator: Adobe Illustrator 29.6.0, SVG Export Plug-In . SVG Version: 2.1.1 Build 207)  -->
  <defs>
    <style>
      .st0 {
        fill: #063a41;
      }
    </style>
  </defs>
  <path class="st0" d="M95,3.3h6v12.4c2-2.9,6.1-3.8,9.5-2.4,3.4,1.4,4.4,3.8,4.6,4.1.3.8.6,1.5.8,2.3.9,5.5-.9,11,.8,16.4h-5.8c-1.5-3.8-.6-8.1-.6-12.1s0-2.3-.6-3.4c-.8-1.4-2.3-2.4-3.8-2.4s-3.2.9-4,2.3c-.6,1.2-.6,2.8-.6,4.1v11.5h-6l-.2-32.7h0ZM71.3,24.1c.2-6.6-4-11.5-10.4-11.5s-8,2.1-9.9,5.8c-2.1,4-2,9.6.6,13.5,3.8,5.2,11.6,6.4,19.1,2.9l-1.8-4.7c-6.3,2.8-13,2-13.5-3.7h15.9v-2.3h0ZM55.5,21.8c.5-1.2,1.1-2.1,2-2.9,1.8-1.4,5-1.5,6.7-.2.8.6,1.4,1.7,1.8,2.9h-10.6v.2h0ZM36.3,21.4s0-3.5-2.9-3.5h-6.6v18.5h-6v-18.5h-4.6v-5h4.6v-4C20.8,5.3,24,.1,31.1.1s9.8,6,9.8,6l-4.6,3.2s-1.2-3.8-5-3.8-4.3,1.4-4.3,4.1v3.1h9.3c4.1,0,5.2,3.1,5.2,3.1,1.5-3.7,7-3.2,8.1-3.1v4.7c-3.8-.3-7.3,1.8-7.3,6.3v12.2h-6v-14.5h0ZM91,24.9c-1.8-1.8-6.6-2.4-9.6-3.1-1.5-.3-2.8-.6-2.8-2.1s1.8-2.3,3.7-2.3,3.7.8,4.7,2.3l4.6-2.4c-2.6-4.6-9.5-5.5-13.9-3.7-1.4.6-2.4,1.5-3.2,2.6-1.7,2.3-1.5,6.3.5,8.1,1.1,1.1,2.9,1.8,5.2,2.3l4.3.8c1.5.3,2.9.6,2.9,2.3s-2.1,2.4-4,2.4c-4.9,0-5.8-4.6-5.8-4.6l-5.7,1.7c.3,1.5,2.3,7.7,11.3,7.7s9.5-2,9.6-7.3c-.2-2-.8-3.5-1.8-4.6h0ZM140.4,31.9c-1.1,0-2-.6-2-2.1s-.2-3.4-.2-4c0-4,.2-7.8-2.6-10.6-3.1-3.1-10.1-3.4-13.8-.9-1.4.8-2.6,1.8-3.5,3.2l3.5,3.7c1.4-2.3,3.4-3.4,5.7-3.4,2.1-.2,4,.9,4.7,3.1-4.7,1.2-10.9,1.7-13.5,6.6-1.2,2.3-.9,5.2.9,7.2,1.4,1.5,3.7,2,5.8,2,3.4,0,6.6-.8,8.6-3.8,1.1,2.6,3.4,3.8,6.1,3.8s.9-.2,1.2-.3v-4.6c-.3.2-.6.2-1.1.2h0ZM132.3,27.2c.2,3.4-2.6,5.2-5.7,5.2s-2.8-.8-2.8-2.4,1.5-2.4,3.2-2.9l5.2-1.5v1.7h0Z"/>
</svg>