<?xml version="1.0" encoding="UTF-8"?>
<svg id="Layer_1" xmlns="http://www.w3.org/2000/svg" version="1.1" viewBox="0 0 202 63">
  <!-- Generator: Adobe Illustrator 29.6.0, SVG Export Plug-In . SVG Version: 2.1.1 Build 207)  -->
  <defs>
    <style>
      .st0 {
        fill: #063a41;
      }
    </style>
  </defs>
  <g>
    <path class="st0" d="M200.1,38c-1,.7-2.4,1.3-3.9,1.3s-3-1.1-3.1-2.6c3.1-.2,8.2-1.1,8.2-5.6s-2.2-4.9-5.5-4.9c-5.4,0-8.1,4.4-8.1,8.9s2.2,8.1,7.7,8.1,5.8-1.6,6-1.8l-1.4-3.4ZM195.5,29.9c.8,0,1.2.5,1.2,1.3,0,1.5-2.2,2.3-3.9,2.4,0-2.2,1.1-3.7,2.7-3.7Z"/>
    <path class="st0" d="M185.4,39.3v-18.4h-5.2v5.4c-.4,0-.8-.1-1.5-.1-5,0-7.9,3.9-7.9,9.3s.9,7.7,6.2,7.7,3.1-.7,3.9-2h.2l.3,1.5h4.4l-.4-3.4ZM180.2,37.8c0,.8-.7,1.7-2,1.7s-2.2-2-2.2-4.4.5-5.1,3-5.1.9,0,1.2.2v7.6Z"/>
    <path class="st0" d="M163.2,22.1c0,1.5,1.1,2.6,2.8,2.6s2.8-1.1,2.8-2.6-1.1-2.6-2.8-2.6c-1.7,0-2.8,1.2-2.8,2.6h0Z"/>
    <polygon class="st0" points="168.6 26.7 163.3 26.7 163.3 42.8 168.6 42.8 168.6 26.7 168.6 26.7"/>
    <path class="st0" d="M154.8,26.7v10.3c0,1.3-.8,2.1-1.9,2.1s-1.5-1-1.5-2.4v-10.1h-5.3v10.8c0,3.8,1.8,5.7,5.3,5.7s3.2-.6,4.1-1.9h.1l.2,1.5h4.4l-.3-3v-13h-5.2Z"/>
    <path class="st0" d="M143,32h-5.4v6.4c-.5.2-1.5.4-2.2.4-3,0-4.2-2.6-4.2-6.7s1.5-6,4-6,2.6.7,4,2.5l3.9-2.9c-2.4-3.4-5.2-4.1-7.9-4.1-4.5,0-9.6,2.7-9.6,10.8s3.8,10.8,9.6,10.8,6-.9,7.8-2.1v-9h0Z"/>
  </g>
  <g>
    <path class="st0" d="M112.3,33.1c0-1.4.9-2.3,2.3-2.3s1.6.2,2.3.5l.8-4.4c-.8-.4-1.7-.6-2.6-.6-1.4,0-2.9.7-3.8,2.7l-.4-2.2h-4.3l.4,3.1v13h5.2v-9.8Z"/>
    <path class="st0" d="M98.5,26.8v10.3c0,1.3-.8,2.1-1.9,2.1s-1.5-1-1.5-2.4v-10.1h-5.3v10.8c0,3.8,1.8,5.7,5.3,5.7s3.2-.6,4.1-1.9h.1l.2,1.5h4.4l-.3-3v-13h-5.2s0,0,0,0Z"/>
    <path class="st0" d="M80.3,26.3c-3.4,0-7.7,2-7.7,8.6s2.8,8.4,7.2,8.4,7.8-3,7.8-8.9-4.8-8.1-7.3-8.1ZM80.1,39.6c-1.8,0-2.1-2.5-2.1-5.2s.7-4.3,2.1-4.3,2.1,1.6,2.1,4.8-.6,4.6-2.1,4.6Z"/>
    <polygon class="st0" points="69.7 22 65.9 29.5 65.7 29.5 62.1 22 56.2 22 63 34.9 63 42.9 68.3 42.9 68.3 34.8 75.3 22 69.7 22"/>
  </g>
  <g>
    <path class="st0" d="M35.8,21.2v16c0,3.1.2,6.2,5.6,6.2s3.5-.5,4.4-1.2l-1.1-3.3c-.5.3-1.1.5-1.7.5-1.1,0-1.9-.4-1.9-2.2v-6.3h3.9v-4.1h-3.9v-5.7h-5.3Z"/>
    <path class="st0" d="M32.6,38.2c-1,.7-2.4,1.3-3.9,1.3s-3-1.2-3.1-2.6c3.1-.2,8.2-1.1,8.2-5.7s-2.2-4.9-5.5-4.9c-5.4,0-8,4.4-8,8.9s2.2,8.1,7.7,8.1,5.9-1.6,6-1.8l-1.4-3.5ZM28.1,30.1c.7,0,1.2.5,1.2,1.3,0,1.5-2.2,2.3-3.9,2.4,0-2.2,1.1-3.7,2.7-3.7Z"/>
    <path class="st0" d="M17.9,32.2h-5.4v6.4c-.5.2-1.5.4-2.2.4-3,0-4.2-2.6-4.2-6.7s1.5-6,4-6,2.6.7,4,2.5l3.9-2.9c-2.4-3.4-5.2-4.1-7.9-4.1-4.5,0-9.6,2.7-9.6,10.8s3.8,10.7,9.6,10.7,6-.9,7.8-2.1v-9h0Z"/>
  </g>
</svg>