<?xml version="1.0" encoding="UTF-8"?>
<svg id="Layer_1" xmlns="http://www.w3.org/2000/svg" version="1.1" viewBox="0 0 202 63">
  <!-- Generator: Adobe Illustrator 29.6.0, SVG Export Plug-In . SVG Version: 2.1.1 Build 207)  -->
  <defs>
    <style>
      .st0 {
        fill: #fff;
      }

      .st1 {
        fill: #063a41;
      }

      .st2 {
        fill: #1f3561;
      }
    </style>
  </defs>
  <path id="path5077" class="st0" d="M29.7,44.3l15-25.5c-.2-.7-.5-1.4-.8-2.1L17.3,5.5.3,29.9c0,.4.1.8.2,1.2l29.2,13.2Z"/>
  <path id="path5009" class="st1" d="M95.4,47.3h-6.2s0,0,0,0l-5.3-6.5-5.3,6.5s0,0,0,0h-4.9s0,0,0,0c0,0,0,0,0,0l7.8-9.6-7.8-9.5s0,0,0,0c0,0,0,0,0,0h6.2s0,0,0,0l4.7,5.8,4.8-5.8s0,0,0,0h5s0,0,0,0c0,0,0,0,0,0l-7.4,8.8,8.4,10.3s0,0,0,0c0,0,0,0,0,0"/>
  <path id="path5013" class="st1" d="M128.9,31.3c-2.7,0-4.6,1.7-5.1,4.6h9.3v-.2c0-2.3-1.7-4.4-4.2-4.4M137.9,38.8s0,0,0,0h-14.1c.3,3.3,2.4,5.2,5.9,5.2s4.4-.7,7.6-2.4c0,0,.1,0,.1,0v4.3s0,0,0,0c-3,1.3-6,2.1-8.3,2.1-6.1,0-10.5-4.4-10.5-10.5s4.4-10.5,10.5-10.5,9.1,3.7,9.1,8.9-.2,2.8-.2,2.8"/>
  <path id="path5017" class="st1" d="M166.6,23.9c-1.7,0-3.1-1.4-3.1-3.1s1.4-3.2,3.1-3.2,3.1,1.4,3.1,3.2-1.4,3.1-3.1,3.1M164.1,47.3s0,0,0,0v-19.3s0,0,0,0h5.1s0,0,0,0v19.3s0,0,0,0h-5.1Z"/>
  <path id="path5021" class="st1" d="M104.8,44.4c-.9,0-1.9-.1-2.9-.4v-12.4c1.3-.4,2.4-.6,3.5-.6,3.5,0,5.9,2.6,5.9,6.5s-2.5,6.9-6.4,6.9M106.2,27.1c-1.4,0-2.9.3-4.4.8h-5.1s0,0,0,0v31.6c1.5-.2,3.4-.8,5.3-2.1v-9.6c1.2.2,2.3.3,3.3.3,7,0,11.5-4.2,11.5-10.6s-4.3-10.5-10.4-10.5"/>
  <path id="path5025" class="st1" d="M154.8,42.8c-1.6.8-3,1.2-4.3,1.2-3.2,0-5-2.2-5-6s2.4-7.1,6.1-7.1,2,.2,3.3.8v11ZM154.8,17.7v10.1c-1.5-.4-2.8-.6-4.1-.6-6.1,0-10.6,4.6-10.6,10.6s4,10.4,9.6,10.4,3.7-.5,5.8-1.6v1.7c1.4-.3,3-.8,4.6-2V15.6c-1.6.2-3.4.7-5.2,2.1"/>
  <path id="path5029" class="st1" d="M186.9,42.8c-1.5.9-2.9,1.3-4,1.3-3.4,0-5.4-2.2-5.4-6s2.4-7.1,5.9-7.1,2.1.4,3.5,1.1v10.6ZM192.2,27.7c0-.1-.1-.2-.2-.2h-4.1c-.1,0-.2.1-.2.2v.7h-.1c-1.9-.8-3.5-1.2-5.1-1.2-5.7,0-10.2,4.7-10.2,10.8s4,10.2,10,10.2,3.6-.1,5.6-2.3v2.5c1.4-.3,3-.9,4.5-2v-18.8Z"/>
  <path id="path5033" class="st1" d="M59.4,42.5h12.8c-.2,1.4-.7,3.1-1.8,4.8h-13.3c-1.6,0-3-1.3-3.1-2.9,0,0,0,0,0,0v-25.2s0,0,0,0c.2-1.6,1.5-2.9,3.1-2.9s.1,0,.1,0h14.9c-.2,1.4-.7,3.1-1.8,4.8h-11v6.9h10.9s0,0,0,0v4.8s0,0,0,0h-10.9v9.6h0Z"/>
  <path id="path5037" class="st1" d="M95.4,47.3h-6.2s0,0,0,0l-5.3-6.5-5.3,6.5s0,0,0,0h-4.9s0,0,0,0c0,0,0,0,0,0l7.8-9.6-7.8-9.5s0,0,0,0c0,0,0,0,0,0h6.2s0,0,0,0l4.7,5.8,4.8-5.8s0,0,0,0h5s0,0,0,0c0,0,0,0,0,0l-7.4,8.8,8.4,10.3s0,0,0,0c0,0,0,0,0,0"/>
  <path id="path5041" class="st1" d="M128.9,31.3c-2.7,0-4.6,1.7-5.1,4.6h9.3v-.2c0-2.3-1.7-4.4-4.2-4.4M137.9,38.8s0,0,0,0h-14.1c.3,3.3,2.4,5.2,5.9,5.2s4.4-.7,7.6-2.4c0,0,.1,0,.1,0v4.3s0,0,0,0c-3,1.3-6,2.1-8.3,2.1-6.1,0-10.5-4.4-10.5-10.5s4.4-10.5,10.5-10.5,9.1,3.7,9.1,8.9-.2,2.8-.2,2.8"/>
  <path id="path5045" class="st1" d="M166.6,23.9c-1.7,0-3.1-1.4-3.1-3.1s1.4-3.2,3.1-3.2,3.1,1.4,3.1,3.2-1.4,3.1-3.1,3.1M164.1,47.3s0,0,0,0v-19.3s0,0,0,0h5.1s0,0,0,0v19.3s0,0,0,0h-5.1Z"/>
  <path id="path5049" class="st1" d="M104.8,44.4c-.9,0-1.9-.1-2.9-.4v-12.4c1.3-.4,2.4-.6,3.5-.6,3.5,0,5.9,2.6,5.9,6.5s-2.5,6.9-6.4,6.9M106.2,27.1c-1.4,0-2.9.3-4.4.8h-5.1s0,0,0,0v31.6c1.5-.2,3.4-.8,5.2-2.1v-9.6c1.2.2,2.3.3,3.3.3,7,0,11.5-4.2,11.5-10.6s-4.3-10.5-10.4-10.5"/>
  <path id="path5053" class="st1" d="M154.8,42.8c-1.6.8-3,1.2-4.3,1.2-3.2,0-5-2.2-5-6s2.4-7.1,6.1-7.1,2,.2,3.2.8v11ZM154.8,17.7v10.1c-1.5-.4-2.8-.6-4.1-.6-6.1,0-10.6,4.6-10.6,10.6s4,10.4,9.6,10.4,3.7-.5,5.8-1.6v1.7c1.4-.3,3-.8,4.6-2V15.6c-1.6.2-3.4.7-5.2,2.1"/>
  <path id="path5057" class="st1" d="M186.9,42.8c-1.5.9-2.9,1.3-4,1.3-3.4,0-5.4-2.2-5.4-6s2.4-7.1,5.9-7.1,2.1.4,3.5,1.1v10.6ZM192.2,27.7c0-.1-.1-.2-.2-.2h-4.1c-.1,0-.2.1-.2.2v.7h-.1c-1.9-.8-3.5-1.2-5.1-1.2-5.7,0-10.2,4.7-10.2,10.8s4,10.2,10,10.2,3.6-.1,5.6-2.3v2.5c1.4-.3,3-.9,4.5-2v-18.8Z"/>
  <path id="path5061" class="st1" d="M59.4,42.5h12.8c-.2,1.4-.7,3.1-1.8,4.8h-13.3c-1.6,0-3-1.3-3.1-2.9,0,0,0,0,0,0v-25.2s0,0,0,0c.2-1.6,1.5-2.9,3.1-2.9s.1,0,.1,0h14.9c-.2,1.4-.7,3.1-1.8,4.8h-11v6.9h10.9s0,0,0,0v4.8s0,0,0,0h-10.9v9.6h0Z"/>
  <path id="path5065" class="st1" d="M197.6,27.2h.6c.7,0,1-.2,1-.6s-.3-.7-1-.7h-.5v1.3ZM198.3,25.3c1.2,0,1.8.4,1.8,1.1s-.3,1-.9,1.2l.9,1.9h-1l-.8-1.8h-.7v1.8h-.9v-4.2h1.6ZM196,25.2c-.6.6-1,1.4-1,2.3s.3,1.6.9,2.2c.6.6,1.4,1,2.2,1s1.7-.3,2.3-.9c.6-.6.9-1.4.9-2.2s-.3-1.7-.9-2.3c-.6-.6-1.4-1-2.3-1s-1.6.3-2.2.9M200.9,24.8c.7.7,1.1,1.6,1.1,2.6s-.4,2-1.1,2.7c-.7.7-1.7,1.1-2.7,1.1s-1.9-.4-2.7-1.1c-.7-.7-1.1-1.6-1.1-2.6s.4-2,1.1-2.7c.7-.7,1.6-1.1,2.6-1.1s2,.4,2.7,1.1"/>
  <path id="path5069" class="st1" d="M26.9,21.1l-.9-2.6-7.9-10.5,1.4-.4,13.6,11.7,8-2.3c.9-.2,2-.3,2.8-.3-2.5-5.4-7.1-9.8-13.2-12C18.8.5,5.6,6.7,1.3,18.7,0,22.4-.3,26.2.3,29.9l19.1-6.6,7.6-2.2Z"/>
  <path id="path5073" class="st1" d="M44.7,18.8c-.7.4-1.7,1.1-2.8,1.4l-8,2.3-5.3,17.1-1.4.5,1.1-13.1-.6-2.7-7.5,2.1L.5,31.1c1.6,7.6,7,14.3,14.8,17.1,12,4.3,25.1-2,29.4-14,1.8-5.2,1.7-10.5,0-15.3"/>
  <path id="path5081" class="st1" d="M43.4,47.7c-1.3,0-2-1-2-2.2s.9-2.2,2-2.2,2,.9,2,2.2-.9,2.2-2,2.2M43.4,43.1c-1.3,0-2.4,1-2.4,2.4s1,2.4,2.4,2.4,2.4-1,2.4-2.4-1.1-2.4-2.4-2.4"/>
  <path id="path5085" class="st2" d="M42.8,45.3v-.9h.6c.3,0,.7,0,.7.4s-.3.5-.7.5h-.6ZM44.6,44.9c0-.6-.4-.8-1.1-.8h-1.1v2.9h.5v-1.2h.4l.7,1.2h.5l-.8-1.3c.4,0,.8-.3.8-.8"/>
</svg>